# xmcd
#
# Track frame offsets:
#	150
#	16036
#	34367
#
# Disc length: 667 seconds
#
# Revision: 0
# Processed by: cddbd v1.5.2PL0 Copyright (c) Steve Scherf et al.
# Submitted via: audiograbber 1.83.01
#
DISCID=19029903
DTITLE=Ezkimo - Tytöt Moi [CDM)
DYEAR=2006
DGENRE=Hip-Hop
TTITLE0=Ezkimo - Tytöt Moi
TTITLE1=Ambassa Feat. Guerra Norte - Rautanyrkki
TTITLE2=Ezkimo - Tytöt Moi Instrumentaali
EXTD=TR.
EXTT0=
EXTT1=
EXTT2=
PLAYORDER=
